<!--?xml version="1.0" encoding="utf-8"?-->
<!-- Generator: Adobe Illustrator 18.1.1, SVG Export Plug-In . SVG Version: 6.00 Build 0)  -->

<svg version="1.1" id="_x32_" xmlns="http://www.w3.org/2000/svg" xmlns:xlink="http://www.w3.org/1999/xlink" x="0px" y="0px" viewBox="0 0 512 512" style="width: 256px; height: 256px; opacity: 1;" xml:space="preserve">
<style type="text/css">
	.st0{fill:#4B4B4B;}
</style>
<g>
	<path class="st0" d="M126.798,148.064c29.804,0,53.955-24.152,53.955-53.939c0-29.795-24.151-53.947-53.955-53.947
		c-29.787,0-53.938,24.152-53.938,53.947C72.86,123.912,97.011,148.064,126.798,148.064z" style="fill: rgb(75, 75, 75);"></path>
	<path class="st0" d="M503.84,424.078L279.76,150.994l35.857-39.239l72.214-21.286c15.699-3.277,25.762-18.653,22.493-34.344
		c-3.268-15.699-18.645-25.762-34.328-22.486l-69.444,14.934c-12.06,2.592-23.282,8.18-32.621,16.254L101.987,213.49l-78.461,13.888
		C7.794,230.421-2.51,245.636,0.533,261.384c3.044,15.739,18.259,26.028,34.006,22.993l73.196-6.118
		c14.185-1.353,27.678-6.796,38.836-15.666l40.784-29.924l45.261,49.213l-48.755,38.908c-17.631,14.001-20.754,43.57-2.077,60.686
		l109.923,87.808c12.624,12.801,33.249,12.946,46.05,0.322c12.8-12.623,12.945-33.24,0.322-46.049l-85.755-72.166l65.483-34.642
		l137.215,150.434c11.898,13.484,32.476,14.772,45.969,2.866C514.466,458.14,515.755,437.571,503.84,424.078z" style="fill: rgb(75, 75, 75);"></path>
</g>
</svg>
