<!--?xml version="1.0" encoding="utf-8"?-->
<!-- Generator: Adobe Illustrator 18.0.0, SVG Export Plug-In . SVG Version: 6.00 Build 0)  -->

<svg version="1.1" id="_x32_" xmlns="http://www.w3.org/2000/svg" xmlns:xlink="http://www.w3.org/1999/xlink" x="0px" y="0px" viewBox="0 0 512 512" style="width: 256px; height: 256px; opacity: 1;" xml:space="preserve">
<style type="text/css">
	.st0{fill:#4B4B4B;}
</style>
<g>
	<path class="st0" d="M490.106,137.406L490.106,137.406v-0.242h-45.875l-39.078-0.203c34.246-20.972,49.528-61.605,34.324-95.004
		C427.823,16.356,400.487,0,371.511,0c-12.289,0-24.869,2.942-36.678,9.363c-26.028,14.16-46.121,34.028-61.506,54.223
		c-0.248,0.324-0.5,0.64-0.746,0.969c-2.365,3.137-4.602,6.258-6.738,9.383c-0.871,1.262-1.75,2.508-2.606,3.793
		c-0.89,1.356-1.711,2.684-2.56,4.031c-1.588,2.473-3.205,4.898-4.742,7.465c-16.336-27.84-41.621-59.652-78.767-79.863
		C165.358,2.942,152.776,0,140.489,0c-28.976,0-56.314,16.356-67.967,41.957c-12.68,27.855-4.111,60.707,18.932,83.027
		c4.561,4.492,9.666,8.609,15.348,12.18H22.478h-0.346l0,0h-0.238v112.969c0,2.195,1.777,3.973,3.971,3.973H78.97v202.051
		C78.97,487,103.972,512,134.812,512h81.188h80h81.187c30.84,0,55.842-25,55.842-55.844V254.274v-0.168h53.107
		c2.192,0,3.971-1.778,3.971-3.973v-112.5V137.406z M116.208,61.844C119.86,53.82,130.073,48,140.491,48
		c4.812,0,9.432,1.188,13.736,3.527c22.826,12.422,40.041,31.316,52.598,49.789c1.92,2.883,3.805,5.848,5.637,8.922
		c-4.477,0.297-9.115,0.469-13.877,0.469c-23.496,0-44.367-4.074-62.035-12.117c-8.938-4.07-16.092-11.028-19.627-19.09
		C115.319,75.844,113.093,68.688,116.208,61.844z M215.999,480h-81.188c-13.144,0-23.842-10.695-23.842-23.844V258.734h105.03
		v221.055V480z M53.894,222.106v-52.942h162.106v52.942H54.312H53.894z M371.511,48c10.418,0,20.629,5.82,24.279,13.844
		c3.115,6.844,0.891,14-0.713,17.656c-3.537,8.062-10.69,15.02-19.629,19.09c-17.666,8.043-38.537,12.117-62.035,12.117
		c-4.207,0-8.276-0.18-12.268-0.414c-0.562-0.062-1.127-0.082-1.69-0.16c12.852-21.07,31.816-44.188,58.316-58.606
		C362.075,49.188,366.698,48,371.511,48z M295.999,480V258.734h105.029v197.422c0,13.148-10.695,23.844-23.842,23.844h-81.098
		H295.999z M295.999,222.106v-52.942h162.107v52.942H296.419H295.999z" style="fill: rgb(75, 75, 75);"></path>
</g>
</svg>
