<!--?xml version="1.0" encoding="utf-8"?-->
<!-- Generator: Adobe Illustrator 18.1.1, SVG Export Plug-In . SVG Version: 6.00 Build 0)  -->

<svg version="1.1" id="_x32_" xmlns="http://www.w3.org/2000/svg" xmlns:xlink="http://www.w3.org/1999/xlink" x="0px" y="0px" viewBox="0 0 512 512" style="width: 256px; height: 256px; opacity: 1;" xml:space="preserve">
<style type="text/css">
	.st0{fill:#4B4B4B;}
</style>
<g>
	<path class="st0" d="M173.799,79.39c33.797,8.469,61.716,8.816,79.328,33.061c0,0,6.612-24.246,11.021-35.266
		c0,0-39.532-77.43-94.757-74.92C120.9,4.469,120.9,66.164,173.799,79.39z" style="fill: rgb(75, 75, 75);"></path>
	<path class="st0" d="M140.717,228.861c13.062-2.551,27.776-4.071,44.756-4.071h125.35c28.796,0,52.246,23.44,52.246,52.257
		c0,5.612-0.898,11.03-2.551,16.102c15.898-10.572,32.551-21.725,46.512-31.225c-13.164-73.982-58.389-111.961-132.616-115.012
		c1.204-21.062,4.796-41.246,13.98-45.481c28.654-13.225,81.553-11.021,116.798-41.878c35.246-30.858-22.02-83.737-92.573-30.838
		c-38.96,29.206-51.654,79.247-55.246,118.206C182.31,150.156,149.778,202.249,140.717,228.861z" style="fill: rgb(75, 75, 75);"></path>
	<path class="st0" d="M502.786,254.913c-12.367-13.48-35.408-10.612-50.817,0.786c-14.082,11.734-110.35,75.001-110.35,75.001
		H224.617l-0.367,0.184c-6.164-0.204-10.98-5.377-10.796-11.531c0.224-6.163,5.408-10.99,11.531-10.776l-0.367-0.214
		c20.919,0,86.206,0,86.206,0c17.306,0,31.348-14.021,31.348-31.316c0-17.327-14.041-31.358-31.348-31.358
		c-15.674,0-47.001,0-125.35,0c-78.369,0-103.186,32.664-130.615,60.073L5.101,349.232C1.857,352.048,0,356.099,0,360.405v144.462
		c0,1.908,1.142,3.674,2.898,4.48c1.756,0.796,3.816,0.52,5.286-0.756l96.165-82.45c3.388-2.878,7.918-4.102,12.286-3.317
		l149.88,27.246c10.449,1.898,21.204-0.5,29.919-6.633c0,0,191.27-133.013,205.412-144.779
		C515.296,286.312,515.153,268.393,502.786,254.913z" style="fill: rgb(75, 75, 75);"></path>
</g>
</svg>
